<svg xmlns="http://www.w3.org/2000/svg" viewBox="0 0 280 52" fill="none">
  <!-- Icon: lightbulb compact -->
  <g transform="translate(2, 2)">
    <circle cx="24" cy="24" r="22" stroke="#c8a96e" stroke-width="1" opacity="0.2"/>
    <path d="M24 8C16.27 8 10 14.27 10 22c0 4.5 2.13 8.5 5.44 11.06V37a2.5 2.5 0 0 0 2.5 2.5h12.12a2.5 2.5 0 0 0 2.5-2.5v-3.94C35.87 30.5 38 26.5 38 22c0-7.73-6.27-14-14-14z" stroke="#c8a96e" stroke-width="1.5" fill="none"/>
    <path d="M20 25c0-2.5 2-4 4-4s4 1.5 4 4" stroke="#c8a96e" stroke-width="1.5" stroke-linecap="round" fill="none"/>
    <line x1="24" y1="21" x2="24" y2="16" stroke="#c8a96e" stroke-width="1.5" stroke-linecap="round"/>
    <line x1="19" y1="42" x2="29" y2="42" stroke="#b87333" stroke-width="1.5" stroke-linecap="round"/>
    <line x1="20" y1="45" x2="28" y2="45" stroke="#b87333" stroke-width="1.5" stroke-linecap="round"/>
  </g>

  <!-- Text -->
  <text x="56" y="24" font-family="'Syne', system-ui, sans-serif" font-weight="800" font-size="20" letter-spacing="-0.3">
    <tspan fill="#f5f0eb">AFTER </tspan><tspan fill="#c8a96e">HOURS</tspan>
  </text>
  <text x="56" y="40" font-family="'DM Sans', system-ui, sans-serif" font-weight="500" font-size="9" letter-spacing="2.8" fill="#b87333">
    PLUMBING &amp; ELECTRICAL
  </text>
</svg>
